<mxfile host="app.diagrams.net" modified="2023-04-25T00:00:17.810Z" agent="Mozilla/5.0 (Windows NT 10.0; Win64; x64; rv:109.0) Gecko/20100101 Firefox/112.0" etag="NtCX8akevQMLPNgRq4KU" version="21.2.1" type="device">
  <diagram id="C5RBs43oDa-KdzZeNtuy" name="Page-1">
    <mxGraphModel dx="1656" dy="729" grid="1" gridSize="10" guides="1" tooltips="1" connect="1" arrows="1" fold="1" page="0" pageScale="1" pageWidth="827" pageHeight="1169" math="0" shadow="0">
      <root>
        <mxCell id="WIyWlLk6GJQsqaUBKTNV-0" />
        <mxCell id="WIyWlLk6GJQsqaUBKTNV-1" parent="WIyWlLk6GJQsqaUBKTNV-0" />
        <mxCell id="zkfFHV4jXpPFQw0GAbJ--0" value="int main()" style="swimlane;fontStyle=2;align=center;verticalAlign=top;childLayout=stackLayout;horizontal=1;startSize=26;horizontalStack=0;resizeParent=1;resizeLast=0;collapsible=1;marginBottom=0;rounded=0;shadow=0;strokeWidth=1;" parent="WIyWlLk6GJQsqaUBKTNV-1" vertex="1">
          <mxGeometry x="590" y="390" width="160" height="250" as="geometry">
            <mxRectangle x="230" y="140" width="160" height="26" as="alternateBounds" />
          </mxGeometry>
        </mxCell>
        <mxCell id="zkfFHV4jXpPFQw0GAbJ--1" value="while(!quit)&#xa;{&#xa;&#xa;start&#xa;    new maze&#xa;load&#xa;    load maze&#xa;    delete maze&#xa;profile&#xa;    load profile&#xa;    delete profile&#xa;    edit profile&#xa;}&#xa;&#xa;&#xa;" style="text;align=left;verticalAlign=top;spacingLeft=4;spacingRight=4;overflow=hidden;rotatable=0;points=[[0,0.5],[1,0.5]];portConstraint=eastwest;" parent="zkfFHV4jXpPFQw0GAbJ--0" vertex="1">
          <mxGeometry y="26" width="160" height="224" as="geometry" />
        </mxCell>
        <mxCell id="zkfFHV4jXpPFQw0GAbJ--6" value="mazeClass //file 1" style="swimlane;fontStyle=0;align=center;verticalAlign=top;childLayout=stackLayout;horizontal=1;startSize=26;horizontalStack=0;resizeParent=1;resizeLast=0;collapsible=1;marginBottom=0;rounded=0;shadow=0;strokeWidth=1;" parent="WIyWlLk6GJQsqaUBKTNV-1" vertex="1">
          <mxGeometry x="270" y="350" width="160" height="174" as="geometry">
            <mxRectangle x="130" y="380" width="160" height="26" as="alternateBounds" />
          </mxGeometry>
        </mxCell>
        <mxCell id="zkfFHV4jXpPFQw0GAbJ--7" value="generate maze&#xa;display maze&#xa;player&#xa;&#xa;" style="text;align=left;verticalAlign=top;spacingLeft=4;spacingRight=4;overflow=hidden;rotatable=0;points=[[0,0.5],[1,0.5]];portConstraint=eastwest;" parent="zkfFHV4jXpPFQw0GAbJ--6" vertex="1">
          <mxGeometry y="26" width="160" height="54" as="geometry" />
        </mxCell>
        <mxCell id="bMe1QkdO_8pJzoKnmwQE-20" value="" style="line;strokeWidth=2;html=1;" parent="zkfFHV4jXpPFQw0GAbJ--6" vertex="1">
          <mxGeometry y="80" width="160" height="10" as="geometry" />
        </mxCell>
        <mxCell id="bMe1QkdO_8pJzoKnmwQE-21" value="check if load&#xa;    yes(load maze)&#xa;    no(new maze)&#xa;" style="text;align=left;verticalAlign=top;spacingLeft=4;spacingRight=4;overflow=hidden;rotatable=0;points=[[0,0.5],[1,0.5]];portConstraint=eastwest;" parent="zkfFHV4jXpPFQw0GAbJ--6" vertex="1">
          <mxGeometry y="90" width="160" height="54" as="geometry" />
        </mxCell>
        <mxCell id="zkfFHV4jXpPFQw0GAbJ--13" value="fileNamespace //file 3" style="swimlane;fontStyle=0;align=center;verticalAlign=top;childLayout=stackLayout;horizontal=1;startSize=26;horizontalStack=0;resizeParent=1;resizeLast=0;collapsible=1;marginBottom=0;rounded=0;shadow=0;strokeWidth=1;" parent="WIyWlLk6GJQsqaUBKTNV-1" vertex="1">
          <mxGeometry x="270" y="520" width="160" height="200" as="geometry">
            <mxRectangle x="340" y="380" width="170" height="26" as="alternateBounds" />
          </mxGeometry>
        </mxCell>
        <mxCell id="zkfFHV4jXpPFQw0GAbJ--14" value="Load&#xa;Save&#xa;delete&#xa;" style="text;align=left;verticalAlign=top;spacingLeft=4;spacingRight=4;overflow=hidden;rotatable=0;points=[[0,0.5],[1,0.5]];portConstraint=eastwest;" parent="zkfFHV4jXpPFQw0GAbJ--13" vertex="1">
          <mxGeometry y="26" width="160" height="64" as="geometry" />
        </mxCell>
        <mxCell id="bMe1QkdO_8pJzoKnmwQE-17" value="expMFile&#xa;expPFile&#xa;modMFiledeleteMFile&#xa;modPFile&#xa;deletePFile&#xa;&#xa;&#xa;" style="text;align=left;verticalAlign=top;spacingLeft=4;spacingRight=4;overflow=hidden;rotatable=0;points=[[0,0.5],[1,0.5]];portConstraint=eastwest;" parent="zkfFHV4jXpPFQw0GAbJ--13" vertex="1">
          <mxGeometry y="90" width="160" height="100" as="geometry" />
        </mxCell>
        <mxCell id="bMe1QkdO_8pJzoKnmwQE-0" value="" style="endArrow=classic;html=1;rounded=0;entryX=1.019;entryY=0.08;entryDx=0;entryDy=0;entryPerimeter=0;startArrow=none;startFill=0;" parent="WIyWlLk6GJQsqaUBKTNV-1" target="zkfFHV4jXpPFQw0GAbJ--6" edge="1">
          <mxGeometry width="50" height="50" relative="1" as="geometry">
            <mxPoint x="590" y="487" as="sourcePoint" />
            <mxPoint x="380" y="370" as="targetPoint" />
            <Array as="points">
              <mxPoint x="520" y="487" />
              <mxPoint x="520" y="364" />
            </Array>
          </mxGeometry>
        </mxCell>
        <mxCell id="bMe1QkdO_8pJzoKnmwQE-1" value="" style="endArrow=classic;html=1;rounded=0;exitX=-0.031;exitY=0.438;exitDx=0;exitDy=0;exitPerimeter=0;entryX=1.006;entryY=0.1;entryDx=0;entryDy=0;entryPerimeter=0;" parent="WIyWlLk6GJQsqaUBKTNV-1" source="zkfFHV4jXpPFQw0GAbJ--1" target="zkfFHV4jXpPFQw0GAbJ--13" edge="1">
          <mxGeometry width="50" height="50" relative="1" as="geometry">
            <mxPoint x="390" y="520" as="sourcePoint" />
            <mxPoint x="440" y="470" as="targetPoint" />
            <Array as="points">
              <mxPoint x="500" y="514" />
              <mxPoint x="500" y="540" />
            </Array>
          </mxGeometry>
        </mxCell>
        <mxCell id="bMe1QkdO_8pJzoKnmwQE-2" value="profClass //file 2" style="swimlane;fontStyle=0;align=center;verticalAlign=top;childLayout=stackLayout;horizontal=1;startSize=26;horizontalStack=0;resizeParent=1;resizeLast=0;collapsible=1;marginBottom=0;rounded=0;shadow=0;strokeWidth=1;" parent="WIyWlLk6GJQsqaUBKTNV-1" vertex="1">
          <mxGeometry x="270" y="720" width="160" height="150" as="geometry">
            <mxRectangle x="130" y="380" width="160" height="26" as="alternateBounds" />
          </mxGeometry>
        </mxCell>
        <mxCell id="bMe1QkdO_8pJzoKnmwQE-3" value="Name&#xa;difficulty&#xa;games won&#xa;" style="text;align=left;verticalAlign=top;spacingLeft=4;spacingRight=4;overflow=hidden;rotatable=0;points=[[0,0.5],[1,0.5]];portConstraint=eastwest;" parent="bMe1QkdO_8pJzoKnmwQE-2" vertex="1">
          <mxGeometry y="26" width="160" height="54" as="geometry" />
        </mxCell>
        <mxCell id="bMe1QkdO_8pJzoKnmwQE-24" value="" style="line;strokeWidth=2;html=1;" parent="bMe1QkdO_8pJzoKnmwQE-2" vertex="1">
          <mxGeometry y="80" width="160" height="10" as="geometry" />
        </mxCell>
        <mxCell id="bMe1QkdO_8pJzoKnmwQE-26" value="if no prof loaded &amp; available\&#xa;    load profile&#xa;&#xa;" style="text;align=left;verticalAlign=top;spacingLeft=4;spacingRight=4;overflow=hidden;rotatable=0;points=[[0,0.5],[1,0.5]];portConstraint=eastwest;" parent="bMe1QkdO_8pJzoKnmwQE-2" vertex="1">
          <mxGeometry y="90" width="160" height="54" as="geometry" />
        </mxCell>
        <mxCell id="bMe1QkdO_8pJzoKnmwQE-4" value="" style="endArrow=classic;html=1;rounded=0;exitX=-0.012;exitY=0.571;exitDx=0;exitDy=0;exitPerimeter=0;entryX=1.013;entryY=0.129;entryDx=0;entryDy=0;entryPerimeter=0;" parent="WIyWlLk6GJQsqaUBKTNV-1" source="zkfFHV4jXpPFQw0GAbJ--1" target="bMe1QkdO_8pJzoKnmwQE-2" edge="1">
          <mxGeometry width="50" height="50" relative="1" as="geometry">
            <mxPoint x="390" y="620" as="sourcePoint" />
            <mxPoint x="520" y="544" as="targetPoint" />
            <Array as="points">
              <mxPoint x="520" y="544" />
              <mxPoint x="520" y="740" />
            </Array>
          </mxGeometry>
        </mxCell>
        <mxCell id="bMe1QkdO_8pJzoKnmwQE-12" value="" style="endArrow=classic;html=1;rounded=0;entryX=0.873;entryY=0.433;entryDx=0;entryDy=0;entryPerimeter=0;exitX=-0.01;exitY=0.065;exitDx=0;exitDy=0;exitPerimeter=0;" parent="WIyWlLk6GJQsqaUBKTNV-1" target="bMe1QkdO_8pJzoKnmwQE-14" edge="1" source="zkfFHV4jXpPFQw0GAbJ--13">
          <mxGeometry width="50" height="50" relative="1" as="geometry">
            <mxPoint x="210" y="540" as="sourcePoint" />
            <mxPoint x="105" y="567.0967741935483" as="targetPoint" />
            <Array as="points" />
          </mxGeometry>
        </mxCell>
        <mxCell id="bMe1QkdO_8pJzoKnmwQE-14" value="&lt;div&gt;Saved Player &lt;br&gt;&lt;/div&gt;&lt;div&gt;data&lt;br&gt;&lt;/div&gt;" style="shape=dataStorage;whiteSpace=wrap;html=1;fixedSize=1;" parent="WIyWlLk6GJQsqaUBKTNV-1" vertex="1">
          <mxGeometry y="510" width="110" height="60" as="geometry" />
        </mxCell>
        <mxCell id="bMe1QkdO_8pJzoKnmwQE-18" value="" style="endArrow=classic;html=1;rounded=0;entryX=0;entryY=0.613;entryDx=0;entryDy=0;exitX=-0.025;exitY=0.114;exitDx=0;exitDy=0;exitPerimeter=0;entryPerimeter=0;" parent="WIyWlLk6GJQsqaUBKTNV-1" source="bMe1QkdO_8pJzoKnmwQE-3" target="bMe1QkdO_8pJzoKnmwQE-17" edge="1">
          <mxGeometry width="50" height="50" relative="1" as="geometry">
            <mxPoint x="240" y="730" as="sourcePoint" />
            <mxPoint x="400" y="570" as="targetPoint" />
            <Array as="points">
              <mxPoint x="240" y="752" />
              <mxPoint x="240" y="671" />
            </Array>
          </mxGeometry>
        </mxCell>
        <mxCell id="bMe1QkdO_8pJzoKnmwQE-19" value="" style="endArrow=classic;html=1;rounded=0;exitX=-0.025;exitY=0.11;exitDx=0;exitDy=0;exitPerimeter=0;entryX=0;entryY=0.5;entryDx=0;entryDy=0;" parent="WIyWlLk6GJQsqaUBKTNV-1" source="bMe1QkdO_8pJzoKnmwQE-17" target="bMe1QkdO_8pJzoKnmwQE-21" edge="1">
          <mxGeometry width="50" height="50" relative="1" as="geometry">
            <mxPoint x="350" y="620" as="sourcePoint" />
            <mxPoint x="240" y="470" as="targetPoint" />
            <Array as="points">
              <mxPoint x="240" y="621" />
              <mxPoint x="240" y="467" />
            </Array>
          </mxGeometry>
        </mxCell>
        <mxCell id="bMe1QkdO_8pJzoKnmwQE-23" value="" style="endArrow=classic;html=1;rounded=0;exitX=-0.012;exitY=0.26;exitDx=0;exitDy=0;exitPerimeter=0;entryX=-0.031;entryY=0.352;entryDx=0;entryDy=0;entryPerimeter=0;" parent="WIyWlLk6GJQsqaUBKTNV-1" source="bMe1QkdO_8pJzoKnmwQE-17" target="bMe1QkdO_8pJzoKnmwQE-26" edge="1">
          <mxGeometry width="50" height="50" relative="1" as="geometry">
            <mxPoint x="350" y="620" as="sourcePoint" />
            <mxPoint x="220" y="830" as="targetPoint" />
            <Array as="points">
              <mxPoint x="220" y="636" />
              <mxPoint x="220" y="829" />
            </Array>
          </mxGeometry>
        </mxCell>
        <mxCell id="bewKsrqxq_JzlADBj7z3-0" value="UtilNamespace" style="swimlane;whiteSpace=wrap;html=1;" vertex="1" parent="WIyWlLk6GJQsqaUBKTNV-1">
          <mxGeometry x="-110" y="690" width="200" height="140" as="geometry" />
        </mxCell>
        <mxCell id="bewKsrqxq_JzlADBj7z3-2" value="errorSwitch&#xa;error Handler&#xa;clearScreen&#xa;getUserInput&#xa;master dialog function&#xa;" style="text;align=left;verticalAlign=top;spacingLeft=4;spacingRight=4;overflow=hidden;rotatable=0;points=[[0,0.5],[1,0.5]];portConstraint=eastwest;" vertex="1" parent="bewKsrqxq_JzlADBj7z3-0">
          <mxGeometry y="30" width="200" height="110" as="geometry" />
        </mxCell>
        <mxCell id="bewKsrqxq_JzlADBj7z3-5" value="" style="edgeStyle=orthogonalEdgeStyle;rounded=0;orthogonalLoop=1;jettySize=auto;html=1;" edge="1" parent="WIyWlLk6GJQsqaUBKTNV-1" source="bewKsrqxq_JzlADBj7z3-3">
          <mxGeometry relative="1" as="geometry">
            <mxPoint x="-110" y="795" as="targetPoint" />
          </mxGeometry>
        </mxCell>
        <mxCell id="bewKsrqxq_JzlADBj7z3-3" value="&lt;div&gt;system dialog&lt;/div&gt;&lt;div&gt;and commands&lt;br&gt;&lt;/div&gt;" style="strokeWidth=2;html=1;shape=mxgraph.flowchart.document2;whiteSpace=wrap;size=0.25;" vertex="1" parent="WIyWlLk6GJQsqaUBKTNV-1">
          <mxGeometry x="-290" y="765" width="100" height="60" as="geometry" />
        </mxCell>
        <mxCell id="bewKsrqxq_JzlADBj7z3-15" value="profile Class" style="verticalAlign=top;align=left;overflow=fill;fontSize=12;fontFamily=Helvetica;html=1;whiteSpace=wrap;" vertex="1" parent="WIyWlLk6GJQsqaUBKTNV-1">
          <mxGeometry x="340" y="1140" width="140" height="60" as="geometry" />
        </mxCell>
        <mxCell id="bewKsrqxq_JzlADBj7z3-16" value="maze Class" style="verticalAlign=top;align=left;overflow=fill;fontSize=12;fontFamily=Helvetica;html=1;whiteSpace=wrap;" vertex="1" parent="WIyWlLk6GJQsqaUBKTNV-1">
          <mxGeometry x="340" y="1040" width="140" height="60" as="geometry" />
        </mxCell>
        <mxCell id="bewKsrqxq_JzlADBj7z3-23" value="Util NameSpace" style="verticalAlign=top;align=left;overflow=fill;fontSize=12;fontFamily=Helvetica;html=1;whiteSpace=wrap;" vertex="1" parent="WIyWlLk6GJQsqaUBKTNV-1">
          <mxGeometry x="660" y="1260" width="140" height="60" as="geometry" />
        </mxCell>
        <mxCell id="bewKsrqxq_JzlADBj7z3-24" value="fileNamespace" style="verticalAlign=top;align=left;overflow=fill;fontSize=12;fontFamily=Helvetica;html=1;whiteSpace=wrap;" vertex="1" parent="WIyWlLk6GJQsqaUBKTNV-1">
          <mxGeometry x="480" y="1260" width="140" height="60" as="geometry" />
        </mxCell>
        <mxCell id="bewKsrqxq_JzlADBj7z3-27" value="" style="endArrow=classic;html=1;rounded=0;fillColor=#f8cecc;strokeColor=#b85450;entryX=0.5;entryY=1;entryDx=0;entryDy=0;exitX=0.416;exitY=0.017;exitDx=0;exitDy=0;exitPerimeter=0;" edge="1" parent="WIyWlLk6GJQsqaUBKTNV-1" source="bewKsrqxq_JzlADBj7z3-23" target="bewKsrqxq_JzlADBj7z3-39">
          <mxGeometry width="50" height="50" relative="1" as="geometry">
            <mxPoint x="720" y="1250" as="sourcePoint" />
            <mxPoint x="685.44" y="1160.96" as="targetPoint" />
            <Array as="points">
              <mxPoint x="718" y="1240" />
              <mxPoint x="680" y="1240" />
            </Array>
          </mxGeometry>
        </mxCell>
        <mxCell id="bewKsrqxq_JzlADBj7z3-28" value="" style="endArrow=classic;html=1;rounded=0;fillColor=#f8cecc;strokeColor=#b85450;entryX=0;entryY=0.5;entryDx=0;entryDy=0;exitX=1;exitY=0.5;exitDx=0;exitDy=0;" edge="1" parent="WIyWlLk6GJQsqaUBKTNV-1" source="bewKsrqxq_JzlADBj7z3-16" target="bewKsrqxq_JzlADBj7z3-39">
          <mxGeometry width="50" height="50" relative="1" as="geometry">
            <mxPoint x="730" y="1260" as="sourcePoint" />
            <mxPoint x="599.6799999999998" y="1080.96" as="targetPoint" />
            <Array as="points">
              <mxPoint x="540" y="1070" />
              <mxPoint x="540" y="1120" />
            </Array>
          </mxGeometry>
        </mxCell>
        <mxCell id="bewKsrqxq_JzlADBj7z3-29" value="" style="endArrow=classic;html=1;rounded=0;fillColor=#f8cecc;strokeColor=#b85450;exitX=0;exitY=0.5;exitDx=0;exitDy=0;entryX=0;entryY=0.5;entryDx=0;entryDy=0;" edge="1" parent="WIyWlLk6GJQsqaUBKTNV-1" source="bewKsrqxq_JzlADBj7z3-24" target="bewKsrqxq_JzlADBj7z3-16">
          <mxGeometry width="50" height="50" relative="1" as="geometry">
            <mxPoint x="425" y="1309" as="sourcePoint" />
            <mxPoint x="300" y="1070" as="targetPoint" />
            <Array as="points">
              <mxPoint x="300" y="1290" />
              <mxPoint x="300" y="1070" />
            </Array>
          </mxGeometry>
        </mxCell>
        <mxCell id="bewKsrqxq_JzlADBj7z3-30" value="" style="endArrow=classic;html=1;rounded=0;fillColor=#f8cecc;strokeColor=#b85450;entryX=1;entryY=0.5;entryDx=0;entryDy=0;exitX=0;exitY=0.5;exitDx=0;exitDy=0;" edge="1" parent="WIyWlLk6GJQsqaUBKTNV-1" source="bewKsrqxq_JzlADBj7z3-23" target="bewKsrqxq_JzlADBj7z3-24">
          <mxGeometry width="50" height="50" relative="1" as="geometry">
            <mxPoint x="750" y="1280" as="sourcePoint" />
            <mxPoint x="715" y="1191" as="targetPoint" />
            <Array as="points" />
          </mxGeometry>
        </mxCell>
        <mxCell id="bewKsrqxq_JzlADBj7z3-31" value="" style="endArrow=classic;html=1;rounded=0;fillColor=#f8cecc;strokeColor=#b85450;exitX=0.5;exitY=1;exitDx=0;exitDy=0;" edge="1" parent="WIyWlLk6GJQsqaUBKTNV-1" source="bewKsrqxq_JzlADBj7z3-23">
          <mxGeometry width="50" height="50" relative="1" as="geometry">
            <mxPoint x="760" y="1290" as="sourcePoint" />
            <mxPoint x="340" y="1070" as="targetPoint" />
            <Array as="points">
              <mxPoint x="730" y="1360" />
              <mxPoint x="280" y="1360" />
              <mxPoint x="280" y="1070" />
            </Array>
          </mxGeometry>
        </mxCell>
        <mxCell id="bewKsrqxq_JzlADBj7z3-33" value="dataFile.csv" style="strokeWidth=2;html=1;shape=mxgraph.flowchart.document2;whiteSpace=wrap;size=0.25;" vertex="1" parent="WIyWlLk6GJQsqaUBKTNV-1">
          <mxGeometry x="500" y="1400" width="100" height="60" as="geometry" />
        </mxCell>
        <mxCell id="bewKsrqxq_JzlADBj7z3-34" value="&lt;div&gt;system dialog&lt;/div&gt;&lt;div&gt;and commands&lt;br&gt;&lt;/div&gt;" style="strokeWidth=2;html=1;shape=mxgraph.flowchart.document2;whiteSpace=wrap;size=0.25;" vertex="1" parent="WIyWlLk6GJQsqaUBKTNV-1">
          <mxGeometry x="710" y="1400" width="100" height="60" as="geometry" />
        </mxCell>
        <mxCell id="bewKsrqxq_JzlADBj7z3-35" value="" style="endArrow=classic;html=1;rounded=0;fillColor=#1ba1e2;strokeColor=#006EAF;exitX=0.5;exitY=0;exitDx=0;exitDy=0;exitPerimeter=0;startArrow=none;startFill=0;" edge="1" parent="WIyWlLk6GJQsqaUBKTNV-1" source="bewKsrqxq_JzlADBj7z3-33">
          <mxGeometry width="50" height="50" relative="1" as="geometry">
            <mxPoint x="490" y="1080" as="sourcePoint" />
            <mxPoint x="550" y="1320" as="targetPoint" />
            <Array as="points" />
          </mxGeometry>
        </mxCell>
        <mxCell id="bewKsrqxq_JzlADBj7z3-37" value="" style="endArrow=classic;html=1;rounded=0;fillColor=#1ba1e2;strokeColor=#006EAF;exitX=0.5;exitY=0;exitDx=0;exitDy=0;exitPerimeter=0;" edge="1" parent="WIyWlLk6GJQsqaUBKTNV-1">
          <mxGeometry width="50" height="50" relative="1" as="geometry">
            <mxPoint x="760" y="1400" as="sourcePoint" />
            <mxPoint x="760" y="1320" as="targetPoint" />
            <Array as="points" />
          </mxGeometry>
        </mxCell>
        <mxCell id="bewKsrqxq_JzlADBj7z3-39" value="" style="shape=image;html=1;verticalAlign=top;verticalLabelPosition=bottom;labelBackgroundColor=#ffffff;imageAspect=0;aspect=fixed;image=https://cdn1.iconfinder.com/data/icons/Futurosoft%20Icons%200.5.2/128x128/mimetypes/source_c.png" vertex="1" parent="WIyWlLk6GJQsqaUBKTNV-1">
          <mxGeometry x="600" y="1040" width="160" height="160" as="geometry" />
        </mxCell>
        <mxCell id="bewKsrqxq_JzlADBj7z3-42" value="&lt;font style=&quot;font-size: 24px;&quot;&gt;&lt;b&gt;Dependency Diagram&lt;/b&gt;&lt;/font&gt;" style="text;html=1;strokeColor=none;fillColor=none;align=center;verticalAlign=middle;whiteSpace=wrap;rounded=0;" vertex="1" parent="WIyWlLk6GJQsqaUBKTNV-1">
          <mxGeometry x="400" y="970" width="240" height="70" as="geometry" />
        </mxCell>
        <mxCell id="bewKsrqxq_JzlADBj7z3-44" value="&lt;font style=&quot;font-size: 25px;&quot;&gt;&lt;b&gt;Program Design and Flow&lt;/b&gt;&lt;font style=&quot;font-size: 25px;&quot;&gt;&lt;b&gt;&lt;br&gt;&lt;/b&gt;&lt;/font&gt;&lt;/font&gt;" style="text;html=1;strokeColor=none;fillColor=none;align=center;verticalAlign=middle;whiteSpace=wrap;rounded=0;" vertex="1" parent="WIyWlLk6GJQsqaUBKTNV-1">
          <mxGeometry x="230" y="250" width="240" height="70" as="geometry" />
        </mxCell>
        <mxCell id="bewKsrqxq_JzlADBj7z3-45" value="=" style="endArrow=classic;html=1;rounded=0;startArrow=none;startFill=0;entryX=1.013;entryY=0.068;entryDx=0;entryDy=0;entryPerimeter=0;" edge="1" parent="WIyWlLk6GJQsqaUBKTNV-1" target="bewKsrqxq_JzlADBj7z3-0">
          <mxGeometry width="50" height="50" relative="1" as="geometry">
            <mxPoint x="680" y="640" as="sourcePoint" />
            <mxPoint x="140" y="700" as="targetPoint" />
            <Array as="points">
              <mxPoint x="680" y="900" />
              <mxPoint x="140" y="900" />
              <mxPoint x="140" y="700" />
            </Array>
          </mxGeometry>
        </mxCell>
        <mxCell id="bewKsrqxq_JzlADBj7z3-47" value="" style="endArrow=none;html=1;rounded=0;exitX=0.507;exitY=1.103;exitDx=0;exitDy=0;exitPerimeter=0;" edge="1" parent="WIyWlLk6GJQsqaUBKTNV-1" source="bMe1QkdO_8pJzoKnmwQE-26">
          <mxGeometry width="50" height="50" relative="1" as="geometry">
            <mxPoint x="440" y="820" as="sourcePoint" />
            <mxPoint x="351" y="900" as="targetPoint" />
          </mxGeometry>
        </mxCell>
        <mxCell id="bewKsrqxq_JzlADBj7z3-48" value="" style="endArrow=none;html=1;rounded=0;exitX=0;exitY=0.5;exitDx=0;exitDy=0;" edge="1" parent="WIyWlLk6GJQsqaUBKTNV-1" source="zkfFHV4jXpPFQw0GAbJ--14">
          <mxGeometry width="50" height="50" relative="1" as="geometry">
            <mxPoint x="440" y="820" as="sourcePoint" />
            <mxPoint x="140" y="700" as="targetPoint" />
            <Array as="points">
              <mxPoint x="140" y="578" />
            </Array>
          </mxGeometry>
        </mxCell>
        <mxCell id="bewKsrqxq_JzlADBj7z3-49" value="" style="endArrow=none;html=1;rounded=0;exitX=0;exitY=0.5;exitDx=0;exitDy=0;" edge="1" parent="WIyWlLk6GJQsqaUBKTNV-1">
          <mxGeometry width="50" height="50" relative="1" as="geometry">
            <mxPoint x="270" y="448" as="sourcePoint" />
            <mxPoint x="140" y="580" as="targetPoint" />
            <Array as="points">
              <mxPoint x="140" y="448" />
            </Array>
          </mxGeometry>
        </mxCell>
      </root>
    </mxGraphModel>
  </diagram>
</mxfile>
